<?xml version="1.0" encoding="utf-8"?>
<!-- Generator: Adobe Illustrator 24.0.3, SVG Export Plug-In . SVG Version: 6.00 Build 0)  -->
<svg version="1.1" id="Layer_1" xmlns="http://www.w3.org/2000/svg" xmlns:xlink="http://www.w3.org/1999/xlink" x="0px" y="0px"
	 viewBox="0 0 90 73.4" style="enable-background:new 0 0 90 73.4;" xml:space="preserve">
<style type="text/css">
	.st0{fill:#FFFFFF;}
</style>
<g>
	<path class="st0" d="M82.3,0H7.7C3.4,0,0,3.4,0,7.7v58c0,4.2,3.4,7.7,7.7,7.7h74.6c4.2,0,7.7-3.4,7.7-7.7v-58C90,3.4,86.6,0,82.3,0
		z M7.7,4h74.6c2,0,3.7,1.6,3.7,3.7v47.4L65.5,35.3c-0.7-0.7-1.9-0.8-2.7-0.1L49.1,46.3l-15.3-16c-0.4-0.4-0.9-0.6-1.4-0.6
		c0,0,0,0,0,0c-0.5,0-1.1,0.2-1.4,0.6L4,58.4V7.7C4,5.7,5.6,4,7.7,4z M82.3,69.4H7.7c-2,0-3.7-1.7-3.7-3.7v-1.5l28.4-29.7l15.2,15.8
		c0.7,0.8,1.9,0.8,2.7,0.2L64,39.4l22,21.3v5C86,67.7,84.4,69.4,82.3,69.4z"/>
	<path class="st0" d="M67,28.3c4.7,0,8.6-3.9,8.6-8.6c0-4.7-3.9-8.6-8.6-8.6s-8.6,3.9-8.6,8.6C58.5,24.4,62.3,28.3,67,28.3z
		 M67,15.1c2.5,0,4.6,2.1,4.6,4.6c0,2.5-2.1,4.6-4.6,4.6s-4.6-2.1-4.6-4.6S64.5,15.1,67,15.1z"/>
</g>
</svg>
