<?xml version="1.0" encoding="utf-8"?>
<!-- Generator: Adobe Illustrator 24.0.3, SVG Export Plug-In . SVG Version: 6.00 Build 0)  -->
<svg version="1.1" id="Layer_1" xmlns="http://www.w3.org/2000/svg" xmlns:xlink="http://www.w3.org/1999/xlink" x="0px" y="0px"
	 viewBox="0 0 90 65" style="enable-background:new 0 0 90 65;" xml:space="preserve">
<style type="text/css">
	.st0{fill:#FFFFFF;}
</style>
<path class="st0" d="M89.9,8.6L64.5,32.5l25.4,24C90,56,90,55.5,90,55V10C90,9.5,90,9,89.9,8.6z"/>
<path class="st0" d="M50.6,38.8L87.7,3.7C85.9,1.4,83.1,0,80,0H10C6.9,0,4.1,1.4,2.3,3.7l37.2,35.1C42.5,41.7,47.5,41.7,50.6,38.8z"
	/>
<path class="st0" d="M0.1,8.5C0,9,0,9.5,0,10v45c0,0.5,0,1,0.1,1.5l25.4-24L0.1,8.5z"/>
<path class="st0" d="M54,42.5c-2.5,2.3-5.7,3.5-9,3.5c-3.3,0-6.5-1.2-9-3.5l-6.9-6.5L2.3,61.3C4.1,63.6,6.9,65,10,65h70
	c3.1,0,5.9-1.4,7.7-3.7L60.9,35.9L54,42.5z"/>
</svg>
