<?xml version="1.0" encoding="utf-8"?>
<!-- Generator: Adobe Illustrator 24.0.3, SVG Export Plug-In . SVG Version: 6.00 Build 0)  -->
<svg version="1.1" id="Layer_1" xmlns="http://www.w3.org/2000/svg" xmlns:xlink="http://www.w3.org/1999/xlink" x="0px" y="0px"
	 viewBox="0 0 21 21" style="enable-background:new 0 0 21 21;" xml:space="preserve">
<style type="text/css">
	.st0{fill:#FFFFFF;}
</style>
<title>Solid_Justify</title>
<g>
	<path class="st0" d="M10.5,6.3c-2.3,0-4.2,1.9-4.2,4.2s1.9,4.2,4.2,4.2s4.2-1.9,4.2-4.2c0,0,0,0,0,0C14.7,8.2,12.8,6.3,10.5,6.3z"
		/>
	<path class="st0" d="M16.4,0H4.6C2.1,0,0,2.1,0,4.6v11.8C0,18.9,2.1,21,4.6,21h11.8c2.5,0,4.6-2.1,4.6-4.6V4.6
		C21,2.1,18.9,0,16.4,0z M16.4,5.5c-0.6,0-1-0.4-1-1s0.4-1,1-1s1,0.4,1,1S17,5.5,16.4,5.5z M10.5,15.7c-2.9,0-5.2-2.3-5.2-5.2
		c0-2.9,2.3-5.2,5.2-5.2c2.9,0,5.2,2.3,5.2,5.2v0C15.7,13.4,13.4,15.7,10.5,15.7z"/>
</g>
</svg>
