<?xml version="1.0" encoding="utf-8"?>
<!-- Generator: Adobe Illustrator 24.0.3, SVG Export Plug-In . SVG Version: 6.00 Build 0)  -->
<svg version="1.1" id="Layer_1" xmlns="http://www.w3.org/2000/svg" xmlns:xlink="http://www.w3.org/1999/xlink" x="0px" y="0px"
	 viewBox="0 0 10 10" style="enable-background:new 0 0 10 10;" xml:space="preserve">
<style type="text/css">
	.st0{fill:#FFFFFF;}
</style>
<g>
	<path class="st0" d="M5,0c1.4,0,2.8,0,4.3,0C9.7,0,10,0.3,10,0.6c0,0,0,0.1,0,0.1c0,2.9,0,5.7,0,8.6C10,9.7,9.7,10,9.3,10
		c0,0-0.1,0-0.1,0c-2.8,0-5.7,0-8.5,0C0.4,10,0.1,9.8,0,9.5c0-0.1,0-0.1,0-0.2c0-2.8,0-5.7,0-8.5C0,0.3,0.3,0,0.7,0c0.3,0,0.7,0,1,0
		C2.8,0,3.9,0,5,0z M5.3,4.4c0-0.2,0-0.4,0-0.5c0-0.1,0-0.1-0.1-0.1c-0.4,0-0.8,0-1.2,0c-0.1,0-0.1,0-0.1,0.1c0,1.5,0,3,0,4.6
		c0,0.1,0,0.1,0.1,0.1c0.4,0,0.9,0,1.3,0c0.1,0,0.1,0,0.1-0.1c0-0.8,0-1.5,0-2.3c0-0.2,0-0.3,0-0.5C5.5,5.3,5.6,5.1,6,5
		c0.1,0,0.2,0,0.3,0C6.7,5,6.9,5.1,7,5.5C7,5.7,7,5.9,7,6.1c0,0.8,0,1.6,0,2.4c0,0.1,0,0.1,0.1,0.1c0.4,0,0.9,0,1.3,0
		c0.1,0,0.1,0,0.1-0.1c0-0.8,0-1.7,0-2.5c0-0.3,0-0.7-0.1-1C8.4,4.4,8.1,4,7.7,3.8C7.2,3.6,6.8,3.6,6.3,3.7C5.9,3.8,5.6,4,5.3,4.4z
		 M1.5,6.1c0,0.8,0,1.5,0,2.3c0,0.1,0,0.1,0.1,0.1c0.4,0,0.9,0,1.3,0C3,8.5,3,8.5,3,8.4c0-1.5,0-3.1,0-4.6c0-0.1,0-0.1-0.1-0.1
		c-0.4,0-0.9,0-1.3,0c-0.1,0-0.1,0-0.1,0.1C1.5,4.6,1.5,5.4,1.5,6.1z M2.2,3.1c0.5,0,0.9-0.4,0.9-0.9c0-0.5-0.4-0.9-0.9-0.9
		c-0.5,0-0.9,0.4-0.9,0.9C1.4,2.7,1.7,3.1,2.2,3.1z"/>
</g>
</svg>
