<?xml version="1.0" encoding="utf-8"?>
<!-- Generator: Adobe Illustrator 24.0.3, SVG Export Plug-In . SVG Version: 6.00 Build 0)  -->
<svg version="1.1"
	 id="Layer_1" xmlns:cc="http://creativecommons.org/ns#" xmlns:dc="http://purl.org/dc/elements/1.1/" xmlns:inkscape="http://www.inkscape.org/namespaces/inkscape" xmlns:rdf="http://www.w3.org/1999/02/22-rdf-syntax-ns#" xmlns:sodipodi="http://sodipodi.sourceforge.net/DTD/sodipodi-0.dtd" xmlns:svg="http://www.w3.org/2000/svg"
	 xmlns="http://www.w3.org/2000/svg" xmlns:xlink="http://www.w3.org/1999/xlink" x="0px" y="0px" viewBox="0 0 64 86"
	 style="enable-background:new 0 0 64 86;" xml:space="preserve">
<style type="text/css">
	.st0{fill:#FFFFFF;}
</style>
<g transform="translate(0,-952.36218)">
	<path class="st0" d="M4,952.4c-2.2,0-4,1.8-4,4v78c0,2.2,1.8,4,4,4h56c2.2,0,4-1.8,4-4v-78c0-2.2-1.8-4-4-4H4z M32,965.4
		c3.8,0,7,3.2,7,7s-3.2,7-7,7s-7-3.2-7-7S28.2,965.4,32,965.4z M32,969.4c-1.7,0-3,1.3-3,3s1.3,3,3,3s3-1.3,3-3S33.7,969.4,32,969.4
		z M32,981.4c2.9,0,6.4,0.8,9.4,2.7c3,1.9,5.6,5.1,5.6,9.3c0,1.1-0.9,2-2,2H19c-1.1,0-2-0.9-2-2c0-4.3,2.5-7.5,5.6-9.3
		C25.6,982.1,29.1,981.4,32,981.4z M32,985.4c-2.1,0-5.1,0.7-7.3,2.1c-1.6,1-2.9,2.3-3.4,3.9h21.4c-0.5-1.7-1.8-2.9-3.4-3.9
		C37.1,986,34.1,985.4,32,985.4z M12,1001.4h40c1.1,0,2,0.9,2,2s-0.9,2-2,2H12c-1.1,0-2-0.9-2-2S10.9,1001.4,12,1001.4z M12,1011.4
		h40c1.1,0,2,0.9,2,2s-0.9,2-2,2H12c-1.1,0-2-0.9-2-2S10.9,1011.4,12,1011.4z M12,1021.4h40c1.1,0,2,0.9,2,2s-0.9,2-2,2H12
		c-1.1,0-2-0.9-2-2S10.9,1021.4,12,1021.4z"/>
</g>
</svg>
