<?xml version="1.0" encoding="utf-8"?>
<!-- Generator: Adobe Illustrator 24.0.3, SVG Export Plug-In . SVG Version: 6.00 Build 0)  -->
<svg version="1.1" id="Layer_1" xmlns="http://www.w3.org/2000/svg" xmlns:xlink="http://www.w3.org/1999/xlink" x="0px" y="0px"
	 viewBox="0 0 90 7" style="enable-background:new 0 0 90 7;" xml:space="preserve">
<g>
	<path d="M81,7c-2.5,0-3.8-1.7-4.9-3.2C75,2.4,74,1,72,1s-3,1.4-4.1,2.8C66.8,5.3,65.5,7,63,7s-3.8-1.7-4.9-3.2C57,2.4,56,1,54,1
		s-3,1.4-4.1,2.8C48.8,5.3,47.5,7,45,7s-3.8-1.7-4.9-3.2C39,2.4,38,1,36,1s-3,1.4-4.1,2.8C30.8,5.3,29.5,7,27,7s-3.8-1.7-4.9-3.2
		C21,2.4,20,1,18,1s-3,1.4-4.1,2.8C12.8,5.3,11.5,7,9,7S5.2,5.3,4.1,3.8C3,2.4,2,1,0,1V0c2.5,0,3.8,1.7,4.9,3.2C6,4.6,7,6,9,6
		s3-1.4,4.1-2.8C14.2,1.7,15.5,0,18,0s3.8,1.7,4.9,3.2C24,4.6,25,6,27,6s3-1.4,4.1-2.8C32.2,1.7,33.5,0,36,0s3.8,1.7,4.9,3.2
		C42,4.6,43,6,45,6s3-1.4,4.1-2.8C50.2,1.7,51.5,0,54,0s3.8,1.7,4.9,3.2C60,4.6,61,6,63,6s3-1.4,4.1-2.8C68.2,1.7,69.5,0,72,0
		s3.8,1.7,4.9,3.2C78,4.6,79,6,81,6s3-1.4,4.1-2.8C86.2,1.7,87.5,0,90,0v1c-2,0-3,1.4-4.1,2.8C84.8,5.3,83.5,7,81,7z"/>
</g>
</svg>
